<?xml version="1.0" encoding="utf-8"?>
<!-- Generator: Adobe Illustrator 18.0.0, SVG Export Plug-In . SVG Version: 6.00 Build 0)  -->
<!DOCTYPE svg PUBLIC "-//W3C//DTD SVG 1.1//EN" "http://www.w3.org/Graphics/SVG/1.1/DTD/svg11.dtd">
<svg version="1.1" id="图层_1" xmlns="http://www.w3.org/2000/svg" xmlns:xlink="http://www.w3.org/1999/xlink" x="0px" y="0px"
	 viewBox="0 0 20 20" enable-background="new 0 0 20 20" xml:space="preserve">
<path fill="#101010" d="M4.2,18.5c-0.6,0-1.4-0.3-1.8-0.7l-2.2-2.1c-0.4-0.4-0.4-1,0-1.4l8.5-8.2c0.4-0.4,1.1-0.4,1.5,0l4.9,4.7
	c0.4,0.4,0.4,1,0,1.4l-5.8,5.5c-0.4,0.4-1.2,0.7-1.8,0.7L4.2,18.5z M13.3,1.8c0.4-0.4,1.1-0.4,1.5,0l4.9,4.7c0.4,0.4,0.4,1,0,1.4
	l-1.2,1.2c-0.4,0.4-1.1,0.4-1.5,0l-4.9-4.7c-0.4-0.4-0.4-1,0-1.4L13.3,1.8z"/>
</svg>
