<?xml version="1.0" encoding="utf-8"?>
<!-- Generator: Adobe Illustrator 18.0.0, SVG Export Plug-In . SVG Version: 6.00 Build 0)  -->
<!DOCTYPE svg PUBLIC "-//W3C//DTD SVG 1.1//EN" "http://www.w3.org/Graphics/SVG/1.1/DTD/svg11.dtd">
<svg version="1.1" id="图层_1" xmlns="http://www.w3.org/2000/svg" xmlns:xlink="http://www.w3.org/1999/xlink" x="0px" y="0px"
	 viewBox="1 1 16 16" enable-background="new 1 1 16 16" xml:space="preserve">
<g>
	<path d="M11,4c-2.8,2.8-5.6,5.6-8.3,8.4c-0.1,0.1-0.1,0.2-0.2,0.2c-0.4,1.3-0.9,2.6-1.3,3.9c0,0.1-0.1,0.3-0.2,0.4c0,0,0,0,0.1,0.1
		c0,0,0.1,0,0.1-0.1C2.6,16.5,4,16,5.4,15.5c0.1,0,0.2-0.1,0.3-0.2C8.4,12.6,11.2,9.8,14,7h0.1c-1-1-2-2-3-3C11,3.9,11,4,11,4z"/>
	<path d="M16.5,2.6c-0.3-0.3-0.7-0.7-1-1S15,1.1,14.6,1c-0.1,0-0.3,0-0.4,0c-0.3,0.1-0.6,0.3-0.8,0.5S13,1.9,12.8,2.1
		c-0.3,0.3-0.5,0.5-0.8,0.8c1,1,2,2,3,3l0.1-0.1C15.6,5.4,16,5,16.4,4.6c0.2-0.2,0.5-0.5,0.6-0.8c0-0.1,0-0.3,0-0.4
		C16.9,3,16.7,2.8,16.5,2.6z"/>
</g>
</svg>
